<mxfile host="app.diagrams.net" modified="2023-07-11T17:16:16.820Z" agent="Mozilla/5.0 (Macintosh; Intel Mac OS X 10_15) AppleWebKit/605.1.15 (KHTML, like Gecko) Version/16.2 DuckDuckGo/7 Safari/605.1.15" version="21.6.2" etag="T4lLYAKDGApk-CDLWVh0" type="github">
  <diagram name="Page-1" id="bcqNnUj5i7lNz7Ld72eF">
    <mxGraphModel>
      <root>
        <mxCell id="0" />
        <mxCell id="1" parent="0" />
      </root>
    </mxGraphModel>
  </diagram>
</mxfile>
